<mxfile host="app.diagrams.net" modified="2023-06-30T13:02:53.956Z" agent="Mozilla/5.0 (Windows NT 10.0; Win64; x64) AppleWebKit/537.36 (KHTML, like Gecko) Chrome/114.0.0.0 Safari/537.36" etag="nMHPax959J1Mo39mItMW" version="21.5.2" type="device">
  <diagram name="Page-1" id="oXEudOJj_U4BH6R97gdO">
    <mxGraphModel dx="2728" dy="1719" grid="1" gridSize="10" guides="1" tooltips="1" connect="1" arrows="1" fold="1" page="1" pageScale="1" pageWidth="850" pageHeight="1100" math="0" shadow="0">
      <root>
        <mxCell id="0" />
        <mxCell id="1" parent="0" />
        <mxCell id="ouAhPFaxpFhqAEhYPpZJ-1" value="" style="rounded=1;whiteSpace=wrap;html=1;" parent="1" vertex="1">
          <mxGeometry x="-1100" y="200" width="120" height="210" as="geometry" />
        </mxCell>
        <mxCell id="ouAhPFaxpFhqAEhYPpZJ-2" value="&lt;b&gt;&lt;font style=&quot;font-size: 15px;&quot;&gt;Instruction Memory&lt;/font&gt;&lt;/b&gt;" style="text;html=1;strokeColor=none;fillColor=none;align=center;verticalAlign=middle;whiteSpace=wrap;rounded=0;" parent="1" vertex="1">
          <mxGeometry x="-1070" y="210" width="60" height="30" as="geometry" />
        </mxCell>
        <mxCell id="ouAhPFaxpFhqAEhYPpZJ-3" value="Address" style="text;html=1;strokeColor=none;fillColor=none;align=center;verticalAlign=middle;whiteSpace=wrap;rounded=0;" parent="1" vertex="1">
          <mxGeometry x="-1100" y="280" width="60" height="30" as="geometry" />
        </mxCell>
        <mxCell id="ouAhPFaxpFhqAEhYPpZJ-62" style="edgeStyle=orthogonalEdgeStyle;rounded=0;orthogonalLoop=1;jettySize=auto;html=1;entryX=0;entryY=0.5;entryDx=0;entryDy=0;" parent="1" source="ouAhPFaxpFhqAEhYPpZJ-4" target="ouAhPFaxpFhqAEhYPpZJ-21" edge="1">
          <mxGeometry relative="1" as="geometry" />
        </mxCell>
        <mxCell id="ouAhPFaxpFhqAEhYPpZJ-4" value="Instruction" style="text;html=1;strokeColor=none;fillColor=none;align=center;verticalAlign=middle;whiteSpace=wrap;rounded=0;" parent="1" vertex="1">
          <mxGeometry x="-1040" y="320" width="60" height="30" as="geometry" />
        </mxCell>
        <mxCell id="ouAhPFaxpFhqAEhYPpZJ-5" value="" style="rounded=1;whiteSpace=wrap;html=1;" parent="1" vertex="1">
          <mxGeometry x="-810" y="159.41" width="170" height="300" as="geometry" />
        </mxCell>
        <mxCell id="ouAhPFaxpFhqAEhYPpZJ-6" value="Instruction" style="text;html=1;strokeColor=none;fillColor=none;align=center;verticalAlign=middle;whiteSpace=wrap;rounded=0;" parent="1" vertex="1">
          <mxGeometry x="-810" y="319.41" width="60" height="30" as="geometry" />
        </mxCell>
        <mxCell id="ouAhPFaxpFhqAEhYPpZJ-7" value="&lt;b&gt;&lt;font style=&quot;font-size: 15px;&quot;&gt;Instruction Decode&lt;/font&gt;&lt;/b&gt;" style="text;html=1;strokeColor=none;fillColor=none;align=center;verticalAlign=middle;whiteSpace=wrap;rounded=0;" parent="1" vertex="1">
          <mxGeometry x="-755" y="169.41" width="60" height="30" as="geometry" />
        </mxCell>
        <mxCell id="ouAhPFaxpFhqAEhYPpZJ-8" value="function[4:0]" style="text;html=1;strokeColor=none;fillColor=none;align=center;verticalAlign=middle;whiteSpace=wrap;rounded=0;" parent="1" vertex="1">
          <mxGeometry x="-705" y="289.41" width="60" height="30" as="geometry" />
        </mxCell>
        <mxCell id="ouAhPFaxpFhqAEhYPpZJ-9" value="Rs2[14:10]" style="text;html=1;strokeColor=none;fillColor=none;align=center;verticalAlign=middle;whiteSpace=wrap;rounded=0;" parent="1" vertex="1">
          <mxGeometry x="-700" y="379.41" width="60" height="30" as="geometry" />
        </mxCell>
        <mxCell id="ouAhPFaxpFhqAEhYPpZJ-10" value="Rs1[9:5]" style="text;html=1;strokeColor=none;fillColor=none;align=center;verticalAlign=middle;whiteSpace=wrap;rounded=0;" parent="1" vertex="1">
          <mxGeometry x="-700" y="319.41" width="60" height="30" as="geometry" />
        </mxCell>
        <mxCell id="ouAhPFaxpFhqAEhYPpZJ-12" value="Rd[19:15]" style="text;html=1;strokeColor=none;fillColor=none;align=center;verticalAlign=middle;whiteSpace=wrap;rounded=0;" parent="1" vertex="1">
          <mxGeometry x="-700" y="349.41" width="60" height="30" as="geometry" />
        </mxCell>
        <mxCell id="ouAhPFaxpFhqAEhYPpZJ-15" value="SA[24:20]" style="text;html=1;strokeColor=none;fillColor=none;align=center;verticalAlign=middle;whiteSpace=wrap;rounded=0;" parent="1" vertex="1">
          <mxGeometry x="-700" y="409.41" width="60" height="30" as="geometry" />
        </mxCell>
        <mxCell id="wLsJZr9vulb0QZbWlHcq-2" style="edgeStyle=orthogonalEdgeStyle;rounded=0;orthogonalLoop=1;jettySize=auto;html=1;" edge="1" parent="1" source="ouAhPFaxpFhqAEhYPpZJ-16">
          <mxGeometry relative="1" as="geometry">
            <mxPoint x="-570" y="50" as="targetPoint" />
          </mxGeometry>
        </mxCell>
        <mxCell id="ouAhPFaxpFhqAEhYPpZJ-16" value="signedImmediate[28:5]" style="text;html=1;strokeColor=none;fillColor=none;align=center;verticalAlign=middle;whiteSpace=wrap;rounded=0;" parent="1" vertex="1">
          <mxGeometry x="-770" y="239.41" width="130" height="30" as="geometry" />
        </mxCell>
        <mxCell id="ouAhPFaxpFhqAEhYPpZJ-17" value="immediate[28:15]" style="text;html=1;strokeColor=none;fillColor=none;align=center;verticalAlign=middle;whiteSpace=wrap;rounded=0;" parent="1" vertex="1">
          <mxGeometry x="-720" y="209.41" width="60" height="30" as="geometry" />
        </mxCell>
        <mxCell id="ouAhPFaxpFhqAEhYPpZJ-20" style="edgeStyle=orthogonalEdgeStyle;rounded=0;orthogonalLoop=1;jettySize=auto;html=1;entryX=0;entryY=0.5;entryDx=0;entryDy=0;" parent="1" source="ouAhPFaxpFhqAEhYPpZJ-19" target="ouAhPFaxpFhqAEhYPpZJ-3" edge="1">
          <mxGeometry relative="1" as="geometry">
            <Array as="points">
              <mxPoint x="-1230" y="295" />
              <mxPoint x="-1230" y="295" />
            </Array>
          </mxGeometry>
        </mxCell>
        <mxCell id="ouAhPFaxpFhqAEhYPpZJ-66" value="PC" style="edgeLabel;html=1;align=center;verticalAlign=middle;resizable=0;points=[];" parent="ouAhPFaxpFhqAEhYPpZJ-20" vertex="1" connectable="0">
          <mxGeometry x="0.2588" relative="1" as="geometry">
            <mxPoint as="offset" />
          </mxGeometry>
        </mxCell>
        <mxCell id="ouAhPFaxpFhqAEhYPpZJ-55" style="edgeStyle=orthogonalEdgeStyle;rounded=0;orthogonalLoop=1;jettySize=auto;html=1;entryX=0.25;entryY=1;entryDx=0;entryDy=0;" parent="1" source="ouAhPFaxpFhqAEhYPpZJ-19" target="ouAhPFaxpFhqAEhYPpZJ-38" edge="1">
          <mxGeometry relative="1" as="geometry" />
        </mxCell>
        <mxCell id="wLsJZr9vulb0QZbWlHcq-12" style="edgeStyle=orthogonalEdgeStyle;rounded=0;orthogonalLoop=1;jettySize=auto;html=1;entryX=0;entryY=0.5;entryDx=0;entryDy=0;" edge="1" parent="1" source="ouAhPFaxpFhqAEhYPpZJ-19" target="wLsJZr9vulb0QZbWlHcq-9">
          <mxGeometry relative="1" as="geometry">
            <Array as="points">
              <mxPoint x="-1180" y="295" />
              <mxPoint x="-1180" y="110" />
            </Array>
          </mxGeometry>
        </mxCell>
        <mxCell id="ouAhPFaxpFhqAEhYPpZJ-19" value="&lt;b&gt;&lt;font style=&quot;font-size: 15px;&quot;&gt;PC&lt;/font&gt;&lt;/b&gt;" style="rounded=1;whiteSpace=wrap;html=1;" parent="1" vertex="1">
          <mxGeometry x="-1300" y="255" width="30" height="80" as="geometry" />
        </mxCell>
        <mxCell id="ouAhPFaxpFhqAEhYPpZJ-24" value="" style="rounded=1;whiteSpace=wrap;html=1;" parent="1" vertex="1">
          <mxGeometry x="-320" y="130" width="150" height="300" as="geometry" />
        </mxCell>
        <mxCell id="ouAhPFaxpFhqAEhYPpZJ-25" style="edgeStyle=orthogonalEdgeStyle;rounded=0;orthogonalLoop=1;jettySize=auto;html=1;exitX=0.5;exitY=1;exitDx=0;exitDy=0;" parent="1" source="ouAhPFaxpFhqAEhYPpZJ-5" target="ouAhPFaxpFhqAEhYPpZJ-5" edge="1">
          <mxGeometry relative="1" as="geometry" />
        </mxCell>
        <mxCell id="ouAhPFaxpFhqAEhYPpZJ-26" value="&lt;b&gt;&lt;font style=&quot;font-size: 15px;&quot;&gt;Register File&lt;/font&gt;&lt;/b&gt;" style="text;html=1;strokeColor=none;fillColor=none;align=center;verticalAlign=middle;whiteSpace=wrap;rounded=0;" parent="1" vertex="1">
          <mxGeometry x="-275" y="160.59" width="60" height="30" as="geometry" />
        </mxCell>
        <mxCell id="ouAhPFaxpFhqAEhYPpZJ-27" value="Rs1" style="text;html=1;strokeColor=none;fillColor=none;align=center;verticalAlign=middle;whiteSpace=wrap;rounded=0;" parent="1" vertex="1">
          <mxGeometry x="-320" y="210.59" width="60" height="30" as="geometry" />
        </mxCell>
        <mxCell id="ouAhPFaxpFhqAEhYPpZJ-29" value="Rs2" style="text;html=1;strokeColor=none;fillColor=none;align=center;verticalAlign=middle;whiteSpace=wrap;rounded=0;" parent="1" vertex="1">
          <mxGeometry x="-320" y="270.59000000000003" width="60" height="30" as="geometry" />
        </mxCell>
        <mxCell id="ouAhPFaxpFhqAEhYPpZJ-30" value="Rd" style="text;html=1;strokeColor=none;fillColor=none;align=center;verticalAlign=middle;whiteSpace=wrap;rounded=0;" parent="1" vertex="1">
          <mxGeometry x="-320" y="325.59000000000003" width="60" height="30" as="geometry" />
        </mxCell>
        <mxCell id="ouAhPFaxpFhqAEhYPpZJ-34" value="" style="ellipse;whiteSpace=wrap;html=1;rotation=90;" parent="1" vertex="1">
          <mxGeometry x="-1460" y="285" width="70" height="20" as="geometry" />
        </mxCell>
        <mxCell id="ouAhPFaxpFhqAEhYPpZJ-35" value="2" style="text;html=1;strokeColor=none;fillColor=none;align=center;verticalAlign=middle;whiteSpace=wrap;rounded=0;" parent="1" vertex="1">
          <mxGeometry x="-1455" y="295" width="60" height="30" as="geometry" />
        </mxCell>
        <mxCell id="ouAhPFaxpFhqAEhYPpZJ-36" value="1" style="text;html=1;strokeColor=none;fillColor=none;align=center;verticalAlign=middle;whiteSpace=wrap;rounded=0;" parent="1" vertex="1">
          <mxGeometry x="-1455" y="280" width="60" height="30" as="geometry" />
        </mxCell>
        <mxCell id="ouAhPFaxpFhqAEhYPpZJ-49" style="edgeStyle=orthogonalEdgeStyle;rounded=0;orthogonalLoop=1;jettySize=auto;html=1;exitX=0.75;exitY=1;exitDx=0;exitDy=0;entryX=0;entryY=0.5;entryDx=0;entryDy=0;" parent="1" source="ouAhPFaxpFhqAEhYPpZJ-37" target="ouAhPFaxpFhqAEhYPpZJ-19" edge="1">
          <mxGeometry relative="1" as="geometry">
            <Array as="points">
              <mxPoint x="-1380" y="295" />
              <mxPoint x="-1380" y="295" />
            </Array>
          </mxGeometry>
        </mxCell>
        <mxCell id="ouAhPFaxpFhqAEhYPpZJ-64" value="Address" style="edgeLabel;html=1;align=center;verticalAlign=middle;resizable=0;points=[];" parent="ouAhPFaxpFhqAEhYPpZJ-49" vertex="1" connectable="0">
          <mxGeometry x="-0.2545" y="2" relative="1" as="geometry">
            <mxPoint as="offset" />
          </mxGeometry>
        </mxCell>
        <mxCell id="ouAhPFaxpFhqAEhYPpZJ-37" value="0" style="text;html=1;strokeColor=none;fillColor=none;align=center;verticalAlign=middle;whiteSpace=wrap;rounded=0;" parent="1" vertex="1">
          <mxGeometry x="-1455" y="265" width="60" height="30" as="geometry" />
        </mxCell>
        <mxCell id="ouAhPFaxpFhqAEhYPpZJ-46" style="edgeStyle=orthogonalEdgeStyle;rounded=0;orthogonalLoop=1;jettySize=auto;html=1;" parent="1" source="ouAhPFaxpFhqAEhYPpZJ-38" target="ouAhPFaxpFhqAEhYPpZJ-37" edge="1">
          <mxGeometry relative="1" as="geometry">
            <Array as="points">
              <mxPoint x="-1210" y="150" />
              <mxPoint x="-1425" y="150" />
            </Array>
          </mxGeometry>
        </mxCell>
        <mxCell id="ouAhPFaxpFhqAEhYPpZJ-65" value="PC_Next" style="edgeLabel;html=1;align=center;verticalAlign=middle;resizable=0;points=[];" parent="ouAhPFaxpFhqAEhYPpZJ-46" vertex="1" connectable="0">
          <mxGeometry x="-0.1102" y="-4" relative="1" as="geometry">
            <mxPoint x="130" as="offset" />
          </mxGeometry>
        </mxCell>
        <mxCell id="ouAhPFaxpFhqAEhYPpZJ-85" style="edgeStyle=orthogonalEdgeStyle;rounded=0;orthogonalLoop=1;jettySize=auto;html=1;" parent="1" source="ouAhPFaxpFhqAEhYPpZJ-38" target="ouAhPFaxpFhqAEhYPpZJ-61" edge="1">
          <mxGeometry relative="1" as="geometry">
            <Array as="points">
              <mxPoint x="-1210" y="-20" />
            </Array>
          </mxGeometry>
        </mxCell>
        <mxCell id="ouAhPFaxpFhqAEhYPpZJ-38" value="Adder" style="rounded=0;whiteSpace=wrap;html=1;" parent="1" vertex="1">
          <mxGeometry x="-1250" y="175" width="60" height="50" as="geometry" />
        </mxCell>
        <mxCell id="ouAhPFaxpFhqAEhYPpZJ-63" style="edgeStyle=orthogonalEdgeStyle;rounded=0;orthogonalLoop=1;jettySize=auto;html=1;entryX=0;entryY=0.5;entryDx=0;entryDy=0;" parent="1" source="ouAhPFaxpFhqAEhYPpZJ-21" target="ouAhPFaxpFhqAEhYPpZJ-6" edge="1">
          <mxGeometry relative="1" as="geometry" />
        </mxCell>
        <mxCell id="ouAhPFaxpFhqAEhYPpZJ-21" value="Inst" style="rounded=0;whiteSpace=wrap;html=1;" parent="1" vertex="1">
          <mxGeometry x="-930" y="305" width="30" height="60" as="geometry" />
        </mxCell>
        <mxCell id="ouAhPFaxpFhqAEhYPpZJ-52" value="" style="triangle;whiteSpace=wrap;html=1;direction=south;" parent="1" vertex="1">
          <mxGeometry x="-1295" y="255" width="20" height="20" as="geometry" />
        </mxCell>
        <mxCell id="ouAhPFaxpFhqAEhYPpZJ-53" value="" style="endArrow=none;html=1;rounded=0;" parent="1" edge="1">
          <mxGeometry width="50" height="50" relative="1" as="geometry">
            <mxPoint x="-1285.5" y="255" as="sourcePoint" />
            <mxPoint x="-1285.5" y="235" as="targetPoint" />
          </mxGeometry>
        </mxCell>
        <mxCell id="ouAhPFaxpFhqAEhYPpZJ-56" value="" style="endArrow=classic;html=1;rounded=0;" parent="1" edge="1">
          <mxGeometry width="50" height="50" relative="1" as="geometry">
            <mxPoint x="-1210" y="260" as="sourcePoint" />
            <mxPoint x="-1210" y="225" as="targetPoint" />
          </mxGeometry>
        </mxCell>
        <mxCell id="ouAhPFaxpFhqAEhYPpZJ-57" value="4" style="text;html=1;strokeColor=none;fillColor=none;align=center;verticalAlign=middle;whiteSpace=wrap;rounded=0;" parent="1" vertex="1">
          <mxGeometry x="-1240" y="250" width="60" height="30" as="geometry" />
        </mxCell>
        <mxCell id="ouAhPFaxpFhqAEhYPpZJ-59" value="" style="endArrow=classic;html=1;rounded=0;entryX=0;entryY=1;entryDx=0;entryDy=0;" parent="1" edge="1">
          <mxGeometry width="50" height="50" relative="1" as="geometry">
            <mxPoint x="-1540" y="305" as="sourcePoint" />
            <mxPoint x="-1435" y="295" as="targetPoint" />
          </mxGeometry>
        </mxCell>
        <mxCell id="ouAhPFaxpFhqAEhYPpZJ-60" value="" style="endArrow=classic;html=1;rounded=0;" parent="1" edge="1">
          <mxGeometry width="50" height="50" relative="1" as="geometry">
            <mxPoint x="-1490" y="360" as="sourcePoint" />
            <mxPoint x="-1440" y="310" as="targetPoint" />
          </mxGeometry>
        </mxCell>
        <mxCell id="ouAhPFaxpFhqAEhYPpZJ-61" value="NPC" style="rounded=0;whiteSpace=wrap;html=1;" parent="1" vertex="1">
          <mxGeometry x="-930" y="-60" width="30" height="60" as="geometry" />
        </mxCell>
        <mxCell id="ouAhPFaxpFhqAEhYPpZJ-75" value="" style="triangle;whiteSpace=wrap;html=1;direction=south;" parent="1" vertex="1">
          <mxGeometry x="-925" y="305" width="20" height="20" as="geometry" />
        </mxCell>
        <mxCell id="ouAhPFaxpFhqAEhYPpZJ-76" value="" style="endArrow=none;html=1;rounded=0;" parent="1" edge="1">
          <mxGeometry width="50" height="50" relative="1" as="geometry">
            <mxPoint x="-915.5" y="305" as="sourcePoint" />
            <mxPoint x="-915.5" y="285" as="targetPoint" />
          </mxGeometry>
        </mxCell>
        <mxCell id="ouAhPFaxpFhqAEhYPpZJ-77" value="" style="triangle;whiteSpace=wrap;html=1;direction=south;" parent="1" vertex="1">
          <mxGeometry x="-925" y="-60" width="20" height="20" as="geometry" />
        </mxCell>
        <mxCell id="ouAhPFaxpFhqAEhYPpZJ-78" value="" style="endArrow=none;html=1;rounded=0;" parent="1" edge="1">
          <mxGeometry width="50" height="50" relative="1" as="geometry">
            <mxPoint x="-915.5" y="-60" as="sourcePoint" />
            <mxPoint x="-915.5" y="-80" as="targetPoint" />
          </mxGeometry>
        </mxCell>
        <mxCell id="ouAhPFaxpFhqAEhYPpZJ-80" style="edgeStyle=orthogonalEdgeStyle;rounded=0;orthogonalLoop=1;jettySize=auto;html=1;entryX=1;entryY=0.5;entryDx=0;entryDy=0;fillColor=#1ba1e2;strokeColor=#006EAF;" parent="1" source="ouAhPFaxpFhqAEhYPpZJ-79" target="ouAhPFaxpFhqAEhYPpZJ-34" edge="1">
          <mxGeometry relative="1" as="geometry" />
        </mxCell>
        <mxCell id="ouAhPFaxpFhqAEhYPpZJ-82" value="PC_Src" style="edgeLabel;html=1;align=center;verticalAlign=middle;resizable=0;points=[];" parent="ouAhPFaxpFhqAEhYPpZJ-80" vertex="1" connectable="0">
          <mxGeometry x="0.5883" y="2" relative="1" as="geometry">
            <mxPoint as="offset" />
          </mxGeometry>
        </mxCell>
        <mxCell id="ouAhPFaxpFhqAEhYPpZJ-79" value="" style="ellipse;whiteSpace=wrap;html=1;" parent="1" vertex="1">
          <mxGeometry x="-820" y="690" width="90" height="120" as="geometry" />
        </mxCell>
        <mxCell id="wLsJZr9vulb0QZbWlHcq-9" value="PC" style="rounded=0;whiteSpace=wrap;html=1;" vertex="1" parent="1">
          <mxGeometry x="-930" y="80" width="30" height="60" as="geometry" />
        </mxCell>
        <mxCell id="wLsJZr9vulb0QZbWlHcq-10" value="" style="triangle;whiteSpace=wrap;html=1;direction=south;" vertex="1" parent="1">
          <mxGeometry x="-925" y="80" width="20" height="20" as="geometry" />
        </mxCell>
        <mxCell id="wLsJZr9vulb0QZbWlHcq-11" value="" style="endArrow=none;html=1;rounded=0;" edge="1" parent="1">
          <mxGeometry width="50" height="50" relative="1" as="geometry">
            <mxPoint x="-915.5" y="80" as="sourcePoint" />
            <mxPoint x="-915.5" y="60" as="targetPoint" />
          </mxGeometry>
        </mxCell>
      </root>
    </mxGraphModel>
  </diagram>
</mxfile>
